<mxfile host="app.diagrams.net" modified="2021-11-13T16:23:58.679Z" agent="5.0 (Windows NT 10.0; Win64; x64) AppleWebKit/537.36 (KHTML, like Gecko) Chrome/95.0.4638.69 Safari/537.36" etag="29s4L0NyT4vt2tjQCIjF" version="15.7.3" type="github">
  <diagram id="VEnAXMlmkaD5QDrI19K5" name="Page-1">
    <mxGraphModel dx="1633" dy="1659" grid="1" gridSize="10" guides="1" tooltips="1" connect="1" arrows="1" fold="1" page="1" pageScale="1" pageWidth="827" pageHeight="1169" background="none" math="0" shadow="1">
      <root>
        <mxCell id="0" />
        <mxCell id="1" parent="0" />
        <mxCell id="9fmQKQ6u9VaohsgQ6cFH-2" value="" style="rounded=0;whiteSpace=wrap;html=1;fillColor=none;" vertex="1" parent="1">
          <mxGeometry x="40" y="40" width="680" height="320" as="geometry" />
        </mxCell>
        <mxCell id="9fmQKQ6u9VaohsgQ6cFH-3" value="Excel" style="text;html=1;strokeColor=none;fillColor=none;align=center;verticalAlign=middle;whiteSpace=wrap;rounded=0;" vertex="1" parent="1">
          <mxGeometry x="40" y="10" width="60" height="30" as="geometry" />
        </mxCell>
        <mxCell id="9fmQKQ6u9VaohsgQ6cFH-4" value="" style="rounded=0;whiteSpace=wrap;html=1;fillColor=none;" vertex="1" parent="1">
          <mxGeometry x="40" y="40" width="680" height="40" as="geometry" />
        </mxCell>
        <mxCell id="9fmQKQ6u9VaohsgQ6cFH-5" value="Title" style="rounded=0;whiteSpace=wrap;html=1;fillColor=none;" vertex="1" parent="1">
          <mxGeometry x="50" y="50" width="120" height="20" as="geometry" />
        </mxCell>
        <mxCell id="9fmQKQ6u9VaohsgQ6cFH-6" value="-" style="rounded=0;whiteSpace=wrap;html=1;fillColor=none;" vertex="1" parent="1">
          <mxGeometry x="670" y="50" width="30" height="20" as="geometry" />
        </mxCell>
        <mxCell id="9fmQKQ6u9VaohsgQ6cFH-7" value="+" style="rounded=0;whiteSpace=wrap;html=1;fillColor=none;" vertex="1" parent="1">
          <mxGeometry x="630" y="50" width="30" height="20" as="geometry" />
        </mxCell>
        <mxCell id="9fmQKQ6u9VaohsgQ6cFH-8" value="" style="rounded=0;whiteSpace=wrap;html=1;fillColor=none;" vertex="1" parent="1">
          <mxGeometry x="40" y="80" width="680" height="40" as="geometry" />
        </mxCell>
        <mxCell id="9fmQKQ6u9VaohsgQ6cFH-9" value="T" style="rounded=0;whiteSpace=wrap;html=1;fillColor=none;" vertex="1" parent="1">
          <mxGeometry x="50" y="90" width="30" height="20" as="geometry" />
        </mxCell>
        <mxCell id="9fmQKQ6u9VaohsgQ6cFH-10" value="T" style="rounded=0;whiteSpace=wrap;html=1;fillColor=none;" vertex="1" parent="1">
          <mxGeometry x="210" y="90" width="30" height="20" as="geometry" />
        </mxCell>
        <mxCell id="9fmQKQ6u9VaohsgQ6cFH-11" value="T" style="rounded=0;whiteSpace=wrap;html=1;fillColor=none;" vertex="1" parent="1">
          <mxGeometry x="360" y="90" width="30" height="20" as="geometry" />
        </mxCell>
        <mxCell id="9fmQKQ6u9VaohsgQ6cFH-12" value="T" style="rounded=0;whiteSpace=wrap;html=1;fillColor=none;" vertex="1" parent="1">
          <mxGeometry x="510" y="90" width="30" height="20" as="geometry" />
        </mxCell>
        <mxCell id="9fmQKQ6u9VaohsgQ6cFH-13" value="" style="endArrow=classic;html=1;rounded=0;entryX=0;entryY=0.5;entryDx=0;entryDy=0;exitX=1;exitY=0.5;exitDx=0;exitDy=0;" edge="1" parent="1" source="9fmQKQ6u9VaohsgQ6cFH-9" target="9fmQKQ6u9VaohsgQ6cFH-10">
          <mxGeometry width="50" height="50" relative="1" as="geometry">
            <mxPoint x="390" y="280" as="sourcePoint" />
            <mxPoint x="440" y="230" as="targetPoint" />
            <Array as="points">
              <mxPoint x="130" y="100" />
            </Array>
          </mxGeometry>
        </mxCell>
        <mxCell id="9fmQKQ6u9VaohsgQ6cFH-14" value="" style="endArrow=classic;html=1;rounded=0;" edge="1" parent="1" target="9fmQKQ6u9VaohsgQ6cFH-11">
          <mxGeometry width="50" height="50" relative="1" as="geometry">
            <mxPoint x="240" y="100" as="sourcePoint" />
            <mxPoint x="220" y="110" as="targetPoint" />
            <Array as="points" />
          </mxGeometry>
        </mxCell>
        <mxCell id="9fmQKQ6u9VaohsgQ6cFH-15" value="" style="endArrow=classic;html=1;rounded=0;entryX=0;entryY=0.5;entryDx=0;entryDy=0;" edge="1" parent="1" target="9fmQKQ6u9VaohsgQ6cFH-12">
          <mxGeometry width="50" height="50" relative="1" as="geometry">
            <mxPoint x="390" y="100" as="sourcePoint" />
            <mxPoint x="370" y="109.44444444444446" as="targetPoint" />
            <Array as="points" />
          </mxGeometry>
        </mxCell>
        <mxCell id="9fmQKQ6u9VaohsgQ6cFH-16" value="" style="rounded=0;whiteSpace=wrap;html=1;fillColor=none;" vertex="1" parent="1">
          <mxGeometry x="40" y="120" width="680" height="40" as="geometry" />
        </mxCell>
        <mxCell id="9fmQKQ6u9VaohsgQ6cFH-17" value="fx" style="rounded=0;whiteSpace=wrap;html=1;fillColor=none;" vertex="1" parent="1">
          <mxGeometry x="40" y="120" width="40" height="40" as="geometry" />
        </mxCell>
        <mxCell id="9fmQKQ6u9VaohsgQ6cFH-18" value="Table" style="text;html=1;strokeColor=none;fillColor=none;align=center;verticalAlign=middle;whiteSpace=wrap;rounded=0;" vertex="1" parent="1">
          <mxGeometry x="345" y="230" width="60" height="30" as="geometry" />
        </mxCell>
        <mxCell id="9fmQKQ6u9VaohsgQ6cFH-19" value="" style="rounded=0;whiteSpace=wrap;html=1;fillColor=none;" vertex="1" parent="1">
          <mxGeometry x="40" y="440" width="690" height="300" as="geometry" />
        </mxCell>
        <mxCell id="9fmQKQ6u9VaohsgQ6cFH-20" value="&lt;b&gt;&lt;font style=&quot;font-size: 14px&quot;&gt;PAGE 2&lt;br&gt;&lt;/font&gt;&lt;/b&gt;" style="text;html=1;strokeColor=none;fillColor=none;align=center;verticalAlign=middle;whiteSpace=wrap;rounded=0;" vertex="1" parent="1">
          <mxGeometry x="330" y="390" width="60" height="30" as="geometry" />
        </mxCell>
        <mxCell id="9fmQKQ6u9VaohsgQ6cFH-21" value="Excel Dashboard Header" style="rounded=0;whiteSpace=wrap;html=1;fillColor=none;" vertex="1" parent="1">
          <mxGeometry x="40" y="440" width="690" height="40" as="geometry" />
        </mxCell>
        <mxCell id="9fmQKQ6u9VaohsgQ6cFH-22" value="Dashboard" style="text;html=1;strokeColor=none;fillColor=none;align=center;verticalAlign=middle;whiteSpace=wrap;rounded=0;" vertex="1" parent="1">
          <mxGeometry x="40" y="410" width="60" height="30" as="geometry" />
        </mxCell>
        <mxCell id="9fmQKQ6u9VaohsgQ6cFH-23" value="" style="rounded=0;whiteSpace=wrap;html=1;fillColor=none;" vertex="1" parent="1">
          <mxGeometry x="40" y="480" width="690" height="80" as="geometry" />
        </mxCell>
        <mxCell id="9fmQKQ6u9VaohsgQ6cFH-24" value="&lt;font style=&quot;font-size: 30px&quot;&gt;+&lt;/font&gt;" style="rounded=0;whiteSpace=wrap;html=1;fillColor=none;" vertex="1" parent="1">
          <mxGeometry x="120" y="490" width="80" height="60" as="geometry" />
        </mxCell>
        <mxCell id="9fmQKQ6u9VaohsgQ6cFH-25" value="" style="rounded=0;whiteSpace=wrap;html=1;fontSize=30;fillColor=none;" vertex="1" parent="1">
          <mxGeometry x="80" y="590" width="600" height="40" as="geometry" />
        </mxCell>
        <mxCell id="9fmQKQ6u9VaohsgQ6cFH-26" value="&lt;font style=&quot;font-size: 10px&quot;&gt;Table Name&lt;/font&gt;" style="text;html=1;strokeColor=none;fillColor=none;align=center;verticalAlign=middle;whiteSpace=wrap;rounded=0;fontSize=30;" vertex="1" parent="1">
          <mxGeometry x="90" y="590" width="60" height="30" as="geometry" />
        </mxCell>
        <mxCell id="9fmQKQ6u9VaohsgQ6cFH-27" value="Created Date" style="text;html=1;strokeColor=none;fillColor=none;align=center;verticalAlign=middle;whiteSpace=wrap;rounded=0;fontSize=10;" vertex="1" parent="1">
          <mxGeometry x="600" y="595" width="75" height="30" as="geometry" />
        </mxCell>
        <mxCell id="9fmQKQ6u9VaohsgQ6cFH-28" value="" style="rounded=0;whiteSpace=wrap;html=1;fontSize=30;fillColor=none;" vertex="1" parent="1">
          <mxGeometry x="80" y="650" width="600" height="40" as="geometry" />
        </mxCell>
        <mxCell id="9fmQKQ6u9VaohsgQ6cFH-29" value="&lt;font style=&quot;font-size: 10px&quot;&gt;Table Name&lt;/font&gt;" style="text;html=1;strokeColor=none;fillColor=none;align=center;verticalAlign=middle;whiteSpace=wrap;rounded=0;fontSize=30;" vertex="1" parent="1">
          <mxGeometry x="90" y="650" width="60" height="30" as="geometry" />
        </mxCell>
        <mxCell id="9fmQKQ6u9VaohsgQ6cFH-30" value="Created Date" style="text;html=1;strokeColor=none;fillColor=none;align=center;verticalAlign=middle;whiteSpace=wrap;rounded=0;fontSize=10;" vertex="1" parent="1">
          <mxGeometry x="605" y="655" width="75" height="30" as="geometry" />
        </mxCell>
        <mxCell id="9fmQKQ6u9VaohsgQ6cFH-31" value="Header&lt;br&gt;" style="text;html=1;align=center;verticalAlign=middle;resizable=0;points=[];autosize=1;strokeColor=none;fillColor=none;" vertex="1" parent="1">
          <mxGeometry x="-30" y="50" width="50" height="20" as="geometry" />
        </mxCell>
        <mxCell id="9fmQKQ6u9VaohsgQ6cFH-32" value="Toolbar&lt;br&gt;" style="text;html=1;align=center;verticalAlign=middle;resizable=0;points=[];autosize=1;strokeColor=none;fillColor=none;" vertex="1" parent="1">
          <mxGeometry x="-35" y="90" width="50" height="20" as="geometry" />
        </mxCell>
        <mxCell id="9fmQKQ6u9VaohsgQ6cFH-33" value="Formula&lt;br&gt;" style="text;html=1;align=center;verticalAlign=middle;resizable=0;points=[];autosize=1;strokeColor=none;fillColor=none;" vertex="1" parent="1">
          <mxGeometry x="-35" y="130" width="60" height="20" as="geometry" />
        </mxCell>
        <mxCell id="9fmQKQ6u9VaohsgQ6cFH-34" value="Table&lt;br&gt;" style="text;html=1;align=center;verticalAlign=middle;resizable=0;points=[];autosize=1;strokeColor=none;fillColor=none;" vertex="1" parent="1">
          <mxGeometry x="-25" y="230" width="40" height="20" as="geometry" />
        </mxCell>
        <mxCell id="9fmQKQ6u9VaohsgQ6cFH-35" value="&lt;font style=&quot;font-size: 25px&quot;&gt;&lt;b&gt;&lt;u&gt;&lt;font color=&quot;#cc0000&quot;&gt;&amp;nbsp; &amp;nbsp;&lt;span style=&quot;white-space: pre&quot;&gt;	&lt;/span&gt;LAYOUT&lt;br&gt;&lt;br&gt;&lt;br&gt;&lt;/font&gt;&lt;br&gt;&lt;/u&gt;&lt;/b&gt;&lt;/font&gt;" style="text;html=1;align=center;verticalAlign=middle;resizable=0;points=[];autosize=1;strokeColor=none;fillColor=none;" vertex="1" parent="1">
          <mxGeometry x="175" y="-30" width="170" height="80" as="geometry" />
        </mxCell>
        <mxCell id="9fmQKQ6u9VaohsgQ6cFH-36" value="&lt;font color=&quot;#ff0000&quot;&gt;&lt;b&gt;&lt;i&gt;Components&lt;/i&gt;&lt;/b&gt;&lt;/font&gt;" style="text;html=1;align=center;verticalAlign=middle;resizable=0;points=[];autosize=1;strokeColor=none;fillColor=none;fontSize=25;" vertex="1" parent="1">
          <mxGeometry x="240" y="-1160" width="170" height="40" as="geometry" />
        </mxCell>
        <mxCell id="9fmQKQ6u9VaohsgQ6cFH-63" value="" style="edgeStyle=orthogonalEdgeStyle;rounded=0;orthogonalLoop=1;jettySize=auto;html=1;fontSize=14;fontColor=#000000;" edge="1" parent="1" source="9fmQKQ6u9VaohsgQ6cFH-39" target="9fmQKQ6u9VaohsgQ6cFH-61">
          <mxGeometry relative="1" as="geometry" />
        </mxCell>
        <mxCell id="9fmQKQ6u9VaohsgQ6cFH-39" value="&lt;font color=&quot;#000000&quot; style=&quot;font-size: 14px&quot;&gt;Toolbar&lt;/font&gt;" style="whiteSpace=wrap;html=1;fontSize=25;fontColor=#CC0000;" vertex="1" parent="1">
          <mxGeometry x="201.25" y="-870" width="117.5" height="80" as="geometry" />
        </mxCell>
        <mxCell id="9fmQKQ6u9VaohsgQ6cFH-40" value="&lt;font color=&quot;#000000&quot; style=&quot;font-size: 14px&quot;&gt;Table&lt;/font&gt;" style="whiteSpace=wrap;html=1;fontSize=25;fontColor=#CC0000;" vertex="1" parent="1">
          <mxGeometry y="-870" width="120" height="80" as="geometry" />
        </mxCell>
        <mxCell id="9fmQKQ6u9VaohsgQ6cFH-47" style="edgeStyle=orthogonalEdgeStyle;rounded=0;orthogonalLoop=1;jettySize=auto;html=1;exitX=1;exitY=0.5;exitDx=0;exitDy=0;fontSize=14;fontColor=#000000;" edge="1" parent="1">
          <mxGeometry relative="1" as="geometry">
            <mxPoint x="365" y="-1015" as="sourcePoint" />
            <mxPoint x="405" y="-1015" as="targetPoint" />
          </mxGeometry>
        </mxCell>
        <mxCell id="9fmQKQ6u9VaohsgQ6cFH-48" value="add&amp;nbsp;&lt;br&gt;listeners&lt;br&gt;" style="text;html=1;align=center;verticalAlign=middle;resizable=0;points=[];autosize=1;strokeColor=none;fillColor=none;fontSize=14;fontColor=#000000;" vertex="1" parent="1">
          <mxGeometry x="510" y="-970" width="70" height="40" as="geometry" />
        </mxCell>
        <mxCell id="9fmQKQ6u9VaohsgQ6cFH-49" value="remove&amp;nbsp;&lt;br&gt;listeners" style="text;html=1;align=center;verticalAlign=middle;resizable=0;points=[];autosize=1;strokeColor=none;fillColor=none;fontSize=14;fontColor=#000000;" vertex="1" parent="1">
          <mxGeometry x="602.5" y="-970" width="70" height="40" as="geometry" />
        </mxCell>
        <mxCell id="9fmQKQ6u9VaohsgQ6cFH-52" value="EXCEL Component" style="whiteSpace=wrap;html=1;fontSize=14;fontColor=#000000;" vertex="1" parent="1">
          <mxGeometry x="50" y="-1110" width="315" height="130" as="geometry" />
        </mxCell>
        <mxCell id="9fmQKQ6u9VaohsgQ6cFH-53" value="DOM Listener" style="whiteSpace=wrap;html=1;fontSize=14;fontColor=#000000;" vertex="1" parent="1">
          <mxGeometry x="405" y="-1110" width="315" height="130" as="geometry" />
        </mxCell>
        <mxCell id="9fmQKQ6u9VaohsgQ6cFH-54" value="&lt;font color=&quot;#000000&quot; style=&quot;font-size: 14px&quot;&gt;Header&lt;/font&gt;" style="whiteSpace=wrap;html=1;fontSize=25;fontColor=#CC0000;" vertex="1" parent="1">
          <mxGeometry x="600" y="-870" width="120" height="80" as="geometry" />
        </mxCell>
        <mxCell id="9fmQKQ6u9VaohsgQ6cFH-66" value="" style="edgeStyle=orthogonalEdgeStyle;rounded=0;orthogonalLoop=1;jettySize=auto;html=1;fontSize=14;fontColor=#000000;" edge="1" parent="1" source="9fmQKQ6u9VaohsgQ6cFH-55" target="9fmQKQ6u9VaohsgQ6cFH-61">
          <mxGeometry relative="1" as="geometry" />
        </mxCell>
        <mxCell id="9fmQKQ6u9VaohsgQ6cFH-55" value="&lt;font color=&quot;#000000&quot; style=&quot;font-size: 14px&quot;&gt;Formula&lt;/font&gt;" style="whiteSpace=wrap;html=1;fontSize=25;fontColor=#CC0000;" vertex="1" parent="1">
          <mxGeometry x="400" y="-870" width="120" height="80" as="geometry" />
        </mxCell>
        <mxCell id="9fmQKQ6u9VaohsgQ6cFH-56" value="" style="endArrow=classic;html=1;rounded=0;fontSize=14;fontColor=#000000;exitX=0.825;exitY=1;exitDx=0;exitDy=0;exitPerimeter=0;" edge="1" parent="1" source="9fmQKQ6u9VaohsgQ6cFH-52">
          <mxGeometry width="50" height="50" relative="1" as="geometry">
            <mxPoint x="340" y="-900" as="sourcePoint" />
            <mxPoint x="590" y="-860" as="targetPoint" />
          </mxGeometry>
        </mxCell>
        <mxCell id="9fmQKQ6u9VaohsgQ6cFH-57" value="" style="endArrow=classic;html=1;rounded=0;fontSize=14;fontColor=#000000;exitX=0.676;exitY=1.008;exitDx=0;exitDy=0;exitPerimeter=0;" edge="1" parent="1" source="9fmQKQ6u9VaohsgQ6cFH-52" target="9fmQKQ6u9VaohsgQ6cFH-55">
          <mxGeometry width="50" height="50" relative="1" as="geometry">
            <mxPoint x="319.875" y="-970" as="sourcePoint" />
            <mxPoint x="600" y="-850" as="targetPoint" />
          </mxGeometry>
        </mxCell>
        <mxCell id="9fmQKQ6u9VaohsgQ6cFH-58" value="" style="endArrow=classic;html=1;rounded=0;fontSize=14;fontColor=#000000;" edge="1" parent="1" source="9fmQKQ6u9VaohsgQ6cFH-52" target="9fmQKQ6u9VaohsgQ6cFH-39">
          <mxGeometry width="50" height="50" relative="1" as="geometry">
            <mxPoint x="329.875" y="-960" as="sourcePoint" />
            <mxPoint x="610" y="-840" as="targetPoint" />
          </mxGeometry>
        </mxCell>
        <mxCell id="9fmQKQ6u9VaohsgQ6cFH-59" value="" style="endArrow=classic;html=1;rounded=0;fontSize=14;fontColor=#000000;exitX=0.146;exitY=1.008;exitDx=0;exitDy=0;exitPerimeter=0;" edge="1" parent="1" source="9fmQKQ6u9VaohsgQ6cFH-52" target="9fmQKQ6u9VaohsgQ6cFH-40">
          <mxGeometry width="50" height="50" relative="1" as="geometry">
            <mxPoint x="339.875" y="-950" as="sourcePoint" />
            <mxPoint x="620" y="-830" as="targetPoint" />
          </mxGeometry>
        </mxCell>
        <mxCell id="9fmQKQ6u9VaohsgQ6cFH-61" value="Excel" style="rounded=0;whiteSpace=wrap;html=1;fontSize=14;fontColor=#000000;strokeWidth=0;fillColor=default;" vertex="1" parent="1">
          <mxGeometry x="200" y="-710" width="350" height="140" as="geometry" />
        </mxCell>
        <mxCell id="9fmQKQ6u9VaohsgQ6cFH-64" value="" style="endArrow=classic;html=1;rounded=0;fontSize=14;fontColor=#000000;" edge="1" parent="1" source="9fmQKQ6u9VaohsgQ6cFH-40" target="9fmQKQ6u9VaohsgQ6cFH-61">
          <mxGeometry width="50" height="50" relative="1" as="geometry">
            <mxPoint x="340" y="-700" as="sourcePoint" />
            <mxPoint x="390" y="-750" as="targetPoint" />
          </mxGeometry>
        </mxCell>
        <mxCell id="9fmQKQ6u9VaohsgQ6cFH-65" value="" style="endArrow=classic;html=1;rounded=0;fontSize=14;fontColor=#000000;" edge="1" parent="1" source="9fmQKQ6u9VaohsgQ6cFH-54" target="9fmQKQ6u9VaohsgQ6cFH-61">
          <mxGeometry width="50" height="50" relative="1" as="geometry">
            <mxPoint x="340" y="-700" as="sourcePoint" />
            <mxPoint x="390" y="-750" as="targetPoint" />
          </mxGeometry>
        </mxCell>
        <mxCell id="9fmQKQ6u9VaohsgQ6cFH-67" value="render in HTML" style="text;html=1;align=center;verticalAlign=middle;resizable=0;points=[];autosize=1;strokeColor=#b85450;fillColor=#f8cecc;fontSize=14;" vertex="1" parent="1">
          <mxGeometry x="320" y="-594" width="110" height="20" as="geometry" />
        </mxCell>
      </root>
    </mxGraphModel>
  </diagram>
</mxfile>
